<svg width="1440" height="422" viewBox="0 0 1440 422" fill="none" xmlns="http://www.w3.org/2000/svg">
<g clip-path="url(#clip0_2_2581)">
<path d="M-119.051 1434C-183.115 1330.11 -259.689 1171.89 -200.462 1050.66C-101.819 848.734 274.511 952.228 400.25 738.782C518.681 537.741 274.487 293.754 390.604 114.322C479.416 -22.9188 717.368 -27.1571 900.014 -10.492M-147.359 1419.65C-175.841 1365.73 -207.116 1296.62 -224.143 1223.77C-240.704 1152.91 -247.049 1084.36 -217.007 1023.53C-118.075 822.261 257.788 926.95 382.185 715.471C499.085 516.772 255.235 275.688 368.239 93.7094C454.746 -45.963 691.039 -55.585 873.838 -43.2916M-175.667 1405.3C-199.829 1350.67 -226.233 1279.86 -240.888 1203.61C-255.422 1128.02 -264.74 1058.91 -233.537 996.4C-134.322 795.787 241.085 901.673 364.144 692.166C479.514 495.798 236.012 257.622 345.893 73.107C430.09 -69.0022 664.723 -83.9979 847.677 -76.0763M-203.974 1390.96C-223.811 1335.62 -245.285 1263.07 -257.637 1183.47C-270.106 1103.11 -282.266 1033.56 -250.081 969.285C-150.072 769.582 224.363 876.404 346.089 668.875C459.928 474.847 216.765 239.57 323.532 52.5183C405.424 -92.0226 638.398 -112.402 821.506 -108.852M-232.28 1376.61C-247.787 1320.56 -264.293 1246.26 -274.385 1163.31C-284.739 1078.16 -299.913 1008.12 -266.614 942.149C-166.194 743.169 207.657 851.121 328.045 645.563C440.354 453.867 197.917 221.711 301.184 31.9099C381.063 -114.91 612.079 -140.821 795.341 -141.643M-260.583 1362.27C-271.766 1305.5 -283.259 1229.43 -291.125 1143.16C-299.331 1053.22 -317.557 982.693 -283.145 915.02C-182.336 716.746 190.948 825.848 309.999 622.253C420.782 432.893 178.755 203.671 278.833 11.3023C356.468 -137.924 585.763 -169.244 769.175 -174.433M-288.894 1347.93C-295.758 1290.44 -302.186 1212.6 -307.874 1123.01C-313.893 1028.26 -335.21 957.269 -299.689 887.894C-198.517 690.322 174.231 800.575 291.945 598.952C401.197 411.933 159.58 185.635 256.473 -9.29583C331.85 -160.943 559.439 -197.657 743.005 -207.218M-317.202 1333.58C-319.741 1275.38 -321.079 1195.76 -324.618 1102.86C-328.412 1003.29 -352.869 931.83 -316.219 860.765C-214.697 663.889 157.528 775.297 273.904 575.647C381.625 390.96 140.405 167.59 234.127 -29.8982C307.247 -183.966 533.123 -226.07 716.843 -240.003M-345.503 1319.23C-343.717 1260.32 -339.942 1178.92 -341.361 1082.71C-342.906 978.323 -370.53 906.394 -332.757 833.634C-230.9 637.44 140.817 750.018 255.855 552.34C362.051 369.989 121.217 149.529 211.778 -50.5068C282.626 -207.001 506.809 -254.494 690.683 -272.799M-373.817 1304.89C-367.706 1245.26 -358.789 1162.09 -358.117 1062.56C-357.378 953.365 -388.204 880.96 -349.303 806.51C-247.134 610.991 124.093 724.751 237.798 529.04C342.459 349.025 102.012 131.475 189.416 -71.1039C257.992 -230.034 480.478 -282.902 664.507 -305.578M-402.123 1290.54C-391.692 1230.2 -377.609 1145.24 -374.86 1042.41C-371.815 928.401 -405.876 855.524 -365.836 779.384C-263.365 584.531 107.386 699.477 219.749 505.733C322.884 328.054 82.7994 113.408 167.062 -91.7082C233.357 -253.074 454.163 -311.316 638.341 -338.369M-430.426 1276.2C-415.67 1215.14 -396.402 1128.42 -391.605 1022.25C-386.233 903.439 -423.553 830.075 -382.371 752.25C-279.612 558.058 90.6787 674.195 201.703 482.424C303.308 307.076 63.5865 95.3331 144.712 -112.315C208.711 -276.122 427.848 -339.739 612.175 -371.159M-458.738 1261.85C-439.653 1200.09 -415.189 1111.58 -408.354 1002.1C-400.633 878.487 -441.239 804.635 -398.905 725.125C-295.868 531.594 73.971 648.922 183.658 459.123C283.732 286.116 44.3594 77.2622 122.361 -132.913C184.065 -299.161 401.528 -368.147 586.009 -403.939M-487.04 1247.51C-463.631 1185.03 -433.954 1094.76 -425.094 981.955C-415.013 853.535 -458.921 779.19 -415.44 698C-312.138 505.115 57.2631 623.649 165.612 435.822C264.16 265.152 25.1224 59.1914 100.011 -153.511C159.404 -322.205 375.212 -396.56 559.848 -436.724M-515.346 1233.16C-487.617 1169.97 -452.707 1077.93 -441.846 961.799C-429.382 828.582 -476.621 753.734 -431.983 670.864C-328.426 478.624 40.5421 598.37 147.558 412.511C244.571 244.176 5.8725 41.1046 77.6613 -174.119C134.745 -345.26 348.894 -424.98 533.679 -469.52M-543.658 1218.82C-511.604 1154.91 -471.457 1061.12 -458.595 941.65C-443.734 803.65 -494.321 728.279 -448.523 643.744C-344.72 452.139 23.8296 573.101 129.504 389.209C224.99 223.211 -13.3879 23.0279 55.3015 -194.718C110.061 -368.31 322.569 -453.393 507.508 -502.305M-571.961 1204.47C-535.582 1139.85 -490.188 1044.3 -475.335 921.501C-458.067 778.71 -512.017 702.829 -465.053 616.614C-361.018 425.641 7.12647 547.824 111.458 365.909C205.414 202.242 -32.6535 4.94688 32.9507 -215.316C85.3812 -391.354 296.253 -481.806 481.342 -535.085M-600.269 1190.12C-559.565 1124.79 -508.919 1027.49 -492.08 901.348C-472.39 753.779 -529.723 677.37 -481.587 589.48C-377.331 399.137 -9.58122 522.542 93.4122 342.599C185.838 181.273 -51.9285 -13.144 10.6001 -235.923C60.6969 -414.413 269.933 -510.224 455.176 -567.875M-628.576 1175.79C-583.553 1109.74 -527.635 1010.69 -508.829 881.198C-486.704 728.848 -547.442 651.904 -498.127 562.36C-393.648 372.637 -26.3035 497.273 75.3618 319.303C166.257 160.308 -71.2083 -31.2213 -11.7553 -256.516C35.9936 -437.464 243.613 -538.633 429.01 -600.655M-656.884 1161.44C-607.535 1094.67 -546.347 993.889 -525.579 861.049C-501.013 703.932 -565.167 626.444 -514.667 535.23C-409.976 346.127 -43.0164 471.996 57.3065 295.992C146.676 139.334 -90.5121 -49.3131 -34.1156 -277.124C11.29 -460.523 217.283 -567.051 402.834 -633.445M-685.19 1147.09C-631.512 1079.61 -565.053 977.089 -542.322 840.894C-515.307 679.011 -582.881 600.973 -531.2 508.104C-426.306 319.612 -59.7229 446.722 39.2622 272.69C127.096 118.368 -110.248 -67.5005 -56.4599 -297.728C-13.7743 -483.662 190.973 -595.47 376.679 -666.236M-713.498 1132.75C-655.501 1064.56 -583.752 960.302 -559.072 820.746C-529.593 654.102 -600.616 575.505 -547.741 480.976C-442.653 293.094 -76.4366 421.445 21.2107 249.386C107.519 97.4002 -129.487 -85.5603 -78.8163 -318.329C-38.4362 -506.695 164.652 -623.886 350.507 -699.02M-741.804 1118.4C-679.482 1049.5 -602.449 943.511 -575.815 800.591C-543.873 629.185 -618.514 549.937 -564.274 453.84C-459.318 266.381 -93.1432 396.162 3.16635 226.075C87.9491 76.4248 -148.723 -103.633 -101.166 -338.938C-63.0908 -529.745 138.333 -652.306 324.342 -731.811M-770.112 1104.05C-703.465 1034.43 -620.865 926.775 -592.56 780.437C-557.82 604.347 -636.195 524.483 -580.809 426.715C-475.565 239.917 -109.856 370.894 -14.8791 202.774C68.3683 55.4606 -167.955 -121.689 -123.516 -359.535C-87.7465 -552.775 112.018 -680.719 298.181 -764.596M-798.419 1089.71C-727.448 1019.38 -639.688 909.972 -609.309 760.287C-572.244 579.417 -653.892 499.032 -597.349 399.585C-491.817 213.448 -126.569 345.615 -32.9344 179.463C48.7872 34.4855 -187.197 -139.756 -145.876 -380.144C-112.412 -575.815 85.6973 -709.138 272.005 -797.386M-826.727 1075.36C-751.435 1004.32 -658.515 893.166 -626.058 740.138C-586.678 554.488 -671.583 473.588 -613.888 372.465C-508.068 186.979 -143.281 320.348 -50.9849 156.168C29.2063 13.5215 -206.435 -157.807 -168.232 -400.736C-137.078 -598.844 59.3721 -737.541 245.839 -830.166" stroke="#47A57C" stroke-width="1.35665" stroke-miterlimit="10"/>
<path d="M1241.95 1420C1177.89 1316.11 1101.31 1157.89 1160.54 1036.66C1259.18 834.734 1635.51 938.228 1761.25 724.782C1879.68 523.741 1635.49 279.754 1751.6 100.322C1840.42 -36.9188 2078.37 -41.1571 2261.01 -24.492M1213.64 1405.65C1185.16 1351.73 1153.88 1282.62 1136.86 1209.77C1120.3 1138.91 1113.95 1070.36 1143.99 1009.53C1242.92 808.261 1618.79 912.95 1743.19 701.471C1860.09 502.772 1616.23 261.688 1729.24 79.7094C1815.75 -59.963 2052.04 -69.585 2234.84 -57.2916M1185.33 1391.3C1161.17 1336.67 1134.77 1265.86 1120.11 1189.61C1105.58 1114.02 1096.26 1044.91 1127.46 982.4C1226.68 781.787 1602.09 887.673 1725.14 678.166C1840.51 481.798 1597.01 243.622 1706.89 59.107C1791.09 -83.0022 2025.72 -97.9979 2208.68 -90.0763M1157.03 1376.96C1137.19 1321.62 1115.71 1249.07 1103.36 1169.47C1090.89 1089.11 1078.73 1019.56 1110.92 955.285C1210.93 755.582 1585.36 862.404 1707.09 654.875C1820.93 460.847 1577.76 225.57 1684.53 38.5183C1766.42 -106.023 1999.4 -126.402 2182.51 -122.852M1128.72 1362.61C1113.21 1306.56 1096.71 1232.26 1086.62 1149.31C1076.26 1064.16 1061.09 994.118 1094.39 928.149C1194.81 729.169 1568.66 837.121 1689.05 631.563C1801.35 439.867 1558.92 207.711 1662.18 17.9099C1742.06 -128.91 1973.08 -154.821 2156.34 -155.643M1100.42 1348.27C1089.23 1291.5 1077.74 1215.43 1069.88 1129.16C1061.67 1039.22 1043.44 968.693 1077.86 901.02C1178.66 702.746 1551.95 811.848 1671 608.253C1781.78 418.893 1539.76 189.671 1639.83 -2.69773C1717.47 -151.924 1946.76 -183.244 2130.17 -188.433M1072.11 1333.93C1065.24 1276.44 1058.81 1198.6 1053.13 1109.01C1047.11 1014.26 1025.79 943.269 1061.31 873.894C1162.48 676.322 1535.23 786.575 1652.94 584.952C1762.2 397.933 1520.58 171.635 1617.47 -23.2958C1692.85 -174.943 1920.44 -211.657 2104 -221.218M1043.8 1319.58C1041.26 1261.38 1039.92 1181.76 1036.38 1088.86C1032.59 989.289 1008.13 917.83 1044.78 846.765C1146.3 649.889 1518.53 761.297 1634.9 561.647C1742.63 376.96 1501.4 153.59 1595.13 -43.8982C1668.25 -197.966 1894.12 -240.07 2077.84 -254.003M1015.5 1305.23C1017.28 1246.32 1021.06 1164.92 1019.64 1068.71C1018.09 964.323 990.47 892.394 1028.24 819.634C1130.1 623.44 1501.82 736.018 1616.85 538.34C1723.05 355.989 1482.22 135.529 1572.78 -64.5068C1643.63 -221.001 1867.81 -268.494 2051.68 -286.799M987.183 1290.89C993.294 1231.26 1002.21 1148.09 1002.88 1048.56C1003.62 939.365 972.796 866.96 1011.7 792.51C1113.87 596.991 1485.09 710.751 1598.8 515.04C1703.46 335.025 1463.01 117.475 1550.42 -85.1039C1618.99 -244.034 1841.48 -296.902 2025.51 -319.578M958.877 1276.54C969.308 1216.2 983.391 1131.24 986.14 1028.41C989.185 914.401 955.124 841.524 995.164 765.384C1097.63 570.531 1468.39 685.477 1580.75 491.733C1683.88 314.054 1443.8 99.4076 1528.06 -105.708C1594.36 -267.074 1815.16 -325.316 1999.34 -352.369M930.574 1262.2C945.33 1201.14 964.598 1114.42 969.395 1008.25C974.767 889.439 937.447 816.075 978.629 738.25C1081.39 544.058 1451.68 660.195 1562.7 468.424C1664.31 293.076 1424.59 81.3331 1505.71 -126.315C1569.71 -290.122 1788.85 -353.739 1973.18 -385.159M902.262 1247.85C921.347 1186.09 945.811 1097.58 952.646 988.104C960.367 864.487 919.761 790.635 962.095 711.125C1065.13 517.594 1434.97 634.922 1544.66 445.123C1644.73 272.116 1405.36 63.2622 1483.36 -146.913C1545.06 -313.161 1762.53 -382.147 1947.01 -417.939M873.96 1233.51C897.369 1171.03 927.046 1080.76 935.906 967.955C945.987 839.535 902.079 765.19 945.56 684C1048.86 491.115 1418.26 609.649 1526.61 421.822C1625.16 251.152 1386.12 45.1914 1461.01 -167.511C1520.4 -336.205 1736.21 -410.56 1920.85 -450.724M845.654 1219.16C873.383 1155.97 908.293 1063.93 919.154 947.799C931.618 814.582 884.379 739.734 929.017 656.864C1032.57 464.624 1401.54 584.37 1508.56 398.511C1605.57 230.176 1366.87 27.1046 1438.66 -188.119C1495.74 -359.26 1709.89 -438.98 1894.68 -483.52M817.342 1204.82C849.396 1140.91 889.543 1047.12 902.405 927.65C917.266 789.65 866.679 714.279 912.477 629.744C1016.28 438.139 1384.83 559.101 1490.5 375.209C1585.99 209.211 1347.61 9.02792 1416.3 -208.718C1471.06 -382.31 1683.57 -467.393 1868.51 -516.305M789.039 1190.47C825.418 1125.85 870.812 1030.3 885.665 907.501C902.933 764.71 848.983 688.829 895.947 602.614C999.982 411.641 1368.13 533.824 1472.46 351.909C1566.41 188.242 1328.35 -9.05312 1393.95 -229.316C1446.38 -405.354 1657.25 -495.806 1842.34 -549.085M760.731 1176.12C801.435 1110.79 852.081 1013.49 868.92 887.348C888.61 739.779 831.277 663.37 879.413 575.48C983.669 385.137 1351.42 508.542 1454.41 328.599C1546.84 167.273 1309.07 -27.144 1371.6 -249.923C1421.7 -428.413 1630.93 -524.224 1816.18 -581.875M732.424 1161.79C777.447 1095.74 833.365 996.692 852.171 867.198C874.296 714.848 813.558 637.904 862.873 548.36C967.352 358.637 1334.7 483.273 1436.36 305.303C1527.26 146.308 1289.79 -45.2213 1349.24 -270.516C1396.99 -451.464 1604.61 -552.633 1790.01 -614.655M704.116 1147.44C753.465 1080.67 814.653 979.889 835.421 847.049C859.987 689.932 795.833 612.444 846.333 521.23C951.024 332.127 1317.98 457.996 1418.31 281.992C1507.68 125.334 1270.49 -63.3131 1326.88 -291.124C1372.29 -474.523 1578.28 -581.051 1763.83 -647.445M675.81 1133.09C729.488 1065.61 795.947 963.089 818.678 826.894C845.693 665.011 778.119 586.973 829.8 494.104C934.694 305.612 1301.28 432.722 1400.26 258.69C1488.1 104.368 1250.75 -81.5005 1304.54 -311.728C1347.23 -497.662 1551.97 -609.47 1737.68 -680.236M647.502 1118.75C705.499 1050.56 777.248 946.302 801.928 806.746C831.407 640.102 760.384 561.505 813.259 466.976C918.347 279.094 1284.56 407.445 1382.21 235.386C1468.52 83.4002 1231.51 -99.5603 1282.18 -332.329C1322.56 -520.695 1525.65 -637.886 1711.51 -713.02M619.196 1104.4C681.518 1035.5 758.551 929.511 785.185 786.591C817.127 615.185 742.486 535.937 796.726 439.84C901.682 252.381 1267.86 382.162 1364.17 212.075C1448.95 62.4248 1212.28 -117.633 1259.83 -352.938C1297.91 -543.745 1499.33 -666.306 1685.34 -745.811M590.888 1090.05C657.535 1020.43 740.135 912.775 768.44 766.437C803.18 590.347 724.805 510.483 780.191 412.715C885.435 225.917 1251.14 356.894 1346.12 188.774C1429.37 41.4606 1193.05 -135.689 1237.48 -373.535C1273.25 -566.775 1473.02 -694.719 1659.18 -778.596M562.581 1075.71C633.552 1005.38 721.312 895.972 751.691 746.287C788.756 565.417 707.108 485.032 763.651 385.585C869.183 199.448 1234.43 331.615 1328.07 165.463C1409.79 20.4855 1173.8 -153.756 1215.12 -394.144C1248.59 -589.815 1446.7 -723.138 1633.01 -811.386M534.273 1061.36C609.565 990.319 702.485 879.166 734.942 726.138C774.322 540.488 689.417 459.588 747.112 358.465C852.932 172.979 1217.72 306.348 1310.02 142.168C1390.21 -0.478472 1154.57 -171.807 1192.77 -414.736C1223.92 -612.844 1420.37 -751.541 1606.84 -844.166" stroke="#47A57C" stroke-width="1.35665" stroke-miterlimit="10"/>
</g>
<defs>
<clipPath id="clip0_2_2581">
<rect width="1443" height="422" fill="white" transform="translate(-1)"/>
</clipPath>
</defs>
</svg>
