<svg width="52" height="52" viewBox="0 0 52 52" fill="none" xmlns="http://www.w3.org/2000/svg">
<rect width="52" height="52" rx="26" fill="#185B34"/>
<path d="M40.784 11.3213C40.5596 11.0615 40.2054 10.9434 39.8157 11.0261L11.9986 18.4896C11.6739 18.59 11.4259 18.8439 11.3373 19.1746C11.2546 19.4993 11.355 19.8477 11.5912 20.0839L15.5828 24.0754L9.68398 25.6638C9.35922 25.7583 9.11124 26.0181 9.02857 26.3488C8.9459 26.6735 9.04628 27.0219 9.28247 27.2581L24.7528 42.7166C24.9358 42.8996 25.1838 43 25.4318 43C25.5086 43 25.5912 42.9882 25.668 42.9705C25.9928 42.8878 26.2526 42.6339 26.3588 42.2855L27.9236 36.4163L31.9388 40.4374C32.1218 40.6145 32.3639 40.7149 32.6119 40.7149C32.6887 40.7149 32.7714 40.7031 32.8481 40.6854C33.1788 40.6027 33.4327 40.3547 33.539 40.0063L40.9848 12.207C41.0733 11.9 40.9966 11.5634 40.784 11.3213ZM25.107 40.833L11.1661 26.9038L16.8759 25.3686L26.6305 35.1231L25.107 40.833ZM32.2931 38.5479L28.396 34.6508L32.0037 21.1821C32.11 20.8456 32.0156 20.4795 31.7676 20.2315C31.5196 19.9835 31.1594 19.889 30.8405 19.9835L17.3483 23.6031L13.4748 19.7296L39.1779 12.8329L32.2931 38.5479Z" fill="#F7DD43"/>
</svg>
