<?xml version="1.0" standalone="no"?>
<!DOCTYPE svg PUBLIC "-//W3C//DTD SVG 20010904//EN"
 "http://www.w3.org/TR/2001/REC-SVG-20010904/DTD/svg10.dtd">
<svg version="1.0" xmlns="http://www.w3.org/2000/svg"
 width="433.000000pt" height="253.000000pt" viewBox="0 0 433.000000 253.000000"
 preserveAspectRatio="xMidYMid meet">

<g transform="translate(0.000000,253.000000) scale(0.100000,-0.100000)"
fill="#000000" stroke="none">
<path d="M0 1265 l0 -1265 2165 0 2165 0 0 1265 0 1265 -2165 0 -2165 0 0
-1265z m700 348 c0 -11 -72 -277 -77 -286 -3 -5 -15 1 -27 12 -24 22 -36 19
-36 -10 0 -36 -18 -26 -100 56 -56 56 -79 86 -69 89 56 17 54 14 29 41 -27 29
-37 24 130 69 134 37 150 40 150 29z m880 -73 c0 -33 3 -60 6 -60 3 0 15 11
26 25 13 17 29 25 51 25 l31 0 -34 -35 -33 -34 18 -28 c52 -80 50 -73 22 -73
-18 0 -31 9 -44 30 -21 35 -37 34 -41 -3 -2 -19 -9 -27 -23 -27 -18 0 -19 8
-19 120 0 113 1 120 20 120 18 0 20 -7 20 -60z m176 49 c10 -17 -23 -46 -37
-32 -7 7 -9 19 -6 27 7 18 33 21 43 5z m-628 -25 c27 -19 30 -69 5 -96 -15
-17 -15 -21 2 -56 11 -20 21 -40 23 -44 2 -5 -8 -8 -22 -8 -20 0 -30 9 -46 40
-13 26 -27 40 -40 40 -17 0 -20 -7 -20 -40 0 -33 -3 -40 -20 -40 -19 0 -20 7
-20 110 l0 110 58 0 c36 0 66 -6 80 -16z m1202 -56 l45 -71 3 71 c3 64 5 72
22 72 19 0 20 -7 20 -110 0 -107 -1 -110 -22 -110 -17 0 -34 17 -65 68 l-42
67 -1 -67 c0 -66 -1 -68 -25 -68 l-25 0 0 110 c0 108 0 110 23 110 17 0 33
-17 67 -72z m180 -18 l0 -90 50 0 c43 0 50 -3 50 -20 0 -18 -7 -20 -75 -20
l-75 0 0 110 0 110 25 0 c25 0 25 -1 25 -90z m160 18 c14 -79 20 -76 41 15 11
50 15 58 33 55 17 -2 24 -16 36 -70 8 -38 17 -68 21 -68 4 0 10 21 14 48 12
83 16 92 40 92 l23 0 -14 -62 c-9 -35 -20 -84 -25 -110 -9 -41 -14 -48 -34
-48 -25 0 -25 0 -53 110 -8 35 -8 35 -27 -38 -16 -62 -22 -72 -41 -72 -13 0
-25 8 -28 18 -6 22 -46 192 -46 198 0 2 11 4 23 4 22 0 25 -7 37 -72z m465 47
c14 -13 25 -31 25 -40 0 -22 -37 -18 -50 6 -8 14 -19 19 -38 17 -37 -4 -57
-47 -45 -96 7 -31 13 -38 38 -40 21 -3 33 3 46 19 16 22 49 21 49 -1 0 -23
-49 -60 -79 -60 -69 0 -101 36 -101 116 0 37 6 51 29 75 38 38 91 40 126 4z
m195 10 c20 -10 33 -28 41 -55 30 -99 -48 -178 -134 -139 -32 15 -52 52 -52
99 0 89 69 134 145 95z m235 -10 c14 -13 25 -33 25 -45 0 -36 -44 -70 -90 -70
l-40 0 0 -40 c0 -36 -2 -40 -25 -40 l-25 0 0 110 0 110 65 0 c57 0 69 -3 90
-25z m176 -80 c21 -55 39 -103 39 -107 0 -5 -11 -8 -24 -8 -15 0 -26 7 -29 20
-4 16 -14 20 -50 20 -36 0 -46 -4 -50 -20 -3 -13 -14 -20 -30 -20 l-25 0 42
110 c37 100 43 110 64 108 19 -3 30 -20 63 -103z m-2437 39 c9 -8 16 -32 16
-53 0 -21 3 -52 6 -69 l6 -30 -60 -1 c-70 0 -99 20 -88 64 5 20 16 28 51 37
25 7 45 15 45 19 0 13 -33 20 -44 9 -15 -15 -46 -12 -46 5 0 33 85 48 114 19z
m96 4 c0 -9 3 -9 12 0 7 7 24 12 38 12 41 0 50 -17 50 -97 0 -66 -2 -73 -20
-73 -16 0 -19 8 -22 63 -3 59 -4 62 -28 62 -24 0 -25 -3 -28 -62 -3 -55 -6
-63 -22 -63 -18 0 -20 7 -20 85 0 78 2 85 20 85 11 0 20 -5 20 -12z m360 -73
c0 -84 0 -85 -25 -85 -25 0 -25 1 -25 85 0 84 0 85 25 85 25 0 25 -1 25 -85z
m165 62 c9 -14 15 -45 15 -84 0 -61 -1 -63 -25 -63 -24 0 -25 2 -25 65 0 63
-1 65 -25 65 -24 0 -25 -2 -25 -65 0 -63 -1 -65 -25 -65 -25 0 -25 1 -25 83
l0 84 60 0 c50 1 63 -3 75 -20z m195 -73 c0 -88 -1 -94 -26 -113 -31 -24 -72
-27 -99 -8 -28 21 -10 36 35 30 31 -4 40 -2 40 9 0 10 -8 13 -29 10 -43 -6
-71 26 -71 83 0 64 22 84 94 83 l56 -1 0 -93z"/>
<path d="M560 1569 c-143 -39 -137 -36 -117 -56 16 -16 22 -16 88 0 40 10 74
16 76 14 2 -2 -4 -36 -14 -75 -14 -59 -14 -73 -3 -87 7 -9 17 -12 21 -8 4 4
19 53 33 108 15 55 29 108 32 118 7 21 12 21 -116 -14z"/>
<path d="M416 1462 c-7 -11 118 -135 127 -126 17 18 4 53 -36 92 -40 39 -79
53 -91 34z"/>
<path d="M1030 1510 c0 -26 3 -30 29 -30 33 0 54 20 45 44 -4 10 -18 16 -40
16 -31 0 -34 -3 -34 -30z"/>
<path d="M3246 1518 c-32 -46 -8 -118 39 -118 28 0 45 26 45 70 0 17 -5 40
-10 51 -14 26 -55 24 -74 -3z"/>
<path d="M3460 1510 c0 -30 2 -31 38 -28 32 3 37 6 37 28 0 22 -5 25 -37 28
-36 3 -38 2 -38 -28z"/>
<path d="M3667 1493 c-2 -10 -8 -26 -12 -35 -6 -15 -2 -18 24 -18 30 0 30 1
19 28 -17 39 -25 46 -31 25z"/>
<path d="M1234 1425 c-3 -8 -3 -19 1 -25 9 -14 45 6 45 25 0 19 -39 19 -46 0z"/>
<path d="M2014 1466 c-10 -41 4 -68 34 -64 24 3 27 7 27 43 0 36 -3 40 -27 43
-22 3 -29 -2 -34 -22z"/>
</g>
</svg>
